<?xml version="1.0" encoding="UTF-8"?>
<svg viewBox="0 0 240 60" xmlns="http://www.w3.org/2000/svg">
  <!-- Gradients -->
  <defs>
    <linearGradient id="iconGradient" x1="0%" y1="0%" x2="100%" y2="100%">
      <stop offset="0%" stop-color="#4B7BF5"/>
      <stop offset="100%" stop-color="#5D4BF5"/>
    </linearGradient>
    <linearGradient id="hammerGradient" x1="0%" y1="0%" x2="100%" y2="100%">
      <stop offset="0%" stop-color="#FFB84D"/>
      <stop offset="100%" stop-color="#FF9900"/>
    </linearGradient>
    <linearGradient id="textGradient" x1="0%" y1="0%" x2="100%" y2="0%">
      <stop offset="0%" stop-color="#4B7BF5"/>
      <stop offset="50%" stop-color="#5D4BF5"/>
      <stop offset="100%" stop-color="#6E3BF5"/>
    </linearGradient>
  </defs>
  
  <!-- Circle Background -->
  <circle cx="30" cy="30" r="24" fill="url(#iconGradient)" />
  
  <!-- Centered Hammer Icon -->
  <!-- Hammer Handle -->
  <rect x="28" y="18" width="4" height="24" rx="1" fill="#8B4513" />
  
  <!-- Hammer Head - Styled more muscular -->
  <rect x="21" y="14" width="18" height="8" rx="1" fill="url(#hammerGradient)" />
  <rect x="21" y="14" width="18" height="1.5" rx="0.75" fill="#FFD700" opacity="0.6" />
  <rect x="21" y="14" width="1.5" height="8" rx="0.75" fill="#FFD700" opacity="0.6" />
  
  <!-- Text "TaskForge" - Same style as before but with correct content -->
  <!-- T -->
  <path d="M66 26 H78 V28 H73 V38 H71 V28 H66 Z" fill="url(#textGradient)"/>
  <!-- a -->
  <path d="M80 30 H88 V38 H86 V36.5 Q85 38 82.5 38 Q81 38 80 37 Q79 36 79 34.5 Q79 33 80 32 Q81 31 83 31 H86 V30 Q86 29 85.5 28.5 Q85 28 84 28 Q83 28 82.5 28.25 Q82 28.5 81.5 29 L80 28 Q80.75 27 82 26.5 Q83.25 26 84.5 26 Q86.5 26 87.25 27 Q88 28 88 30 V32 H80 Z M81 34.5 Q81 35.25 81.5 35.75 Q82 36.25 83 36.25 Q84.5 36.25 85.25 35.25 Q86 34.25 86 33 H83 Q82 33 81.5 33.5 Q81 34 81 34.5 Z" fill="url(#textGradient)"/>
  <!-- s -->
  <path d="M97 28 Q97 29.5 95.5 30.2 Q94 30.9 93 31 Q91.5 31.2 91 31.8 Q90.5 32.4 90.5 33 Q90.5 33.7 91.25 34.1 Q92 34.5 93 34.5 Q94.25 34.5 95.25 33.9 Q96.25 33.3 96.5 32.5 L97.5 33.5 Q97 34.5 95.75 35.25 Q94.5 36 93 36 Q91.25 36 90 35.25 Q88.75 34.5 88.75 33 Q88.75 31.5 90 30.6 Q91.25 29.7 93 29.5 Q94.5 29.3 95.25 28.9 Q96 28.5 96 27.7 Q96 27 95.25 26.5 Q94.5 26 93.25 26 Q92.25 26 91.5 26.5 Q90.75 27 90.5 27.7 L89.5 26.5 Q90 25.5 91.25 25 Q92.5 24.5 93.75 24.5 Q95.75 24.5 97 25.5 Q98.25 26.5 98.25 28 Z" fill="url(#textGradient)"/>
  <!-- k -->
  <path d="M99 24 H101 V31 L105.5 26 H108 L103.5 31 L108 38 H105.5 L102 32.5 L101 33.5 V38 H99 Z" fill="url(#textGradient)"/>
  <!-- F -->
  <path d="M110 26 H120 V28 H112 V31 H119 V33 H112 V38 H110 Z" fill="url(#textGradient)"/>
  <!-- o -->
  <path d="M122 32 Q122 30 123.25 28.75 Q124.5 27.5 126.5 27.5 Q128.5 27.5 129.75 28.75 Q131 30 131 32 Q131 34 129.75 35.25 Q128.5 36.5 126.5 36.5 Q124.5 36.5 123.25 35.25 Q122 34 122 32 Z M124 32 Q124 33 124.75 33.75 Q125.5 34.5 126.5 34.5 Q127.5 34.5 128.25 33.75 Q129 33 129 32 Q129 31 128.25 30.25 Q127.5 29.5 126.5 29.5 Q125.5 29.5 124.75 30.25 Q124 31 124 32 Z" fill="url(#textGradient)"/>
  <!-- r -->
  <path d="M133 28 H134 V29.5 Q134.5 28 136.5 27.5 V29.5 Q135.5 29.5 135 30 Q134.5 30.5 134.5 31.5 V38 H133 V28 Z" fill="url(#textGradient)"/>
  <!-- g -->
  <path d="M138 32 Q138 30 139.25 28.75 Q140.5 27.5 142.5 27.5 Q143.5 27.5 144.25 27.85 Q145 28.2 145.5 29 V24 H147 V36 Q147 37.5 146.25 38.5 Q145.5 39.5 144.25 40 Q143 40.5 141.5 40.5 Q140 40.5 139 40 Q138 39.5 137.5 38.75 L138.5 37.5 Q139 38 139.75 38.25 Q140.5 38.5 141.5 38.5 Q143 38.5 144 37.75 Q145 37 145 36 V35 Q144.5 35.75 143.75 36.15 Q143 36.55 142 36.55 Q140 36.55 139 35.3 Q138 34.05 138 32 Z M140 32 Q140 33.25 140.75 34 Q141.5 34.75 142.75 34.75 Q144 34.75 144.75 34 Q145.5 33.25 145.5 32 Q145.5 30.75 144.75 30 Q144 29.25 142.75 29.25 Q141.5 29.25 140.75 30 Q140 30.75 140 32 Z" fill="url(#textGradient)"/>
  <!-- e -->
  <path d="M149 32 Q149 30 150.25 28.75 Q151.5 27.5 153.5 27.5 Q155.5 27.5 156.75 28.75 Q158 30 158 32 V32.5 H151 Q151 33.5 151.75 34.25 Q152.5 35 153.5 35 Q154.5 35 155 34.75 Q155.5 34.5 156 34 L157 35 Q156.5 35.5 155.75 36 Q155 36.5 153.5 36.5 Q151.5 36.5 150.25 35.25 Q149 34 149 32 Z M151 31 H156 Q156 30 155.25 29.5 Q154.5 29 153.5 29 Q152.5 29 151.75 29.5 Q151 30 151 31 Z" fill="url(#textGradient)"/>
</svg>